<mxfile host="app.diagrams.net" modified="2024-03-07T20:01:08.382Z" agent="Mozilla/5.0 (Macintosh; Intel Mac OS X 10_15_7) AppleWebKit/537.36 (KHTML, like Gecko) Chrome/122.0.0.0 Safari/537.36" etag="G2auvc4OEfI5zl5Neb97" version="24.0.2" type="google">
  <diagram name="Page-1" id="Q1SIB-XR5B2nqa9qOPA-">
    <mxGraphModel dx="1242" dy="713" grid="1" gridSize="10" guides="1" tooltips="1" connect="1" arrows="1" fold="1" page="1" pageScale="1" pageWidth="850" pageHeight="1100" math="0" shadow="0">
      <root>
        <mxCell id="0" />
        <mxCell id="1" parent="0" />
        <mxCell id="Buo815LVb-Y8c9eUiNSX-22" style="edgeStyle=orthogonalEdgeStyle;rounded=0;orthogonalLoop=1;jettySize=auto;html=1;" edge="1" parent="1" source="Buo815LVb-Y8c9eUiNSX-1" target="Buo815LVb-Y8c9eUiNSX-23">
          <mxGeometry relative="1" as="geometry">
            <mxPoint x="240" y="137.5" as="targetPoint" />
          </mxGeometry>
        </mxCell>
        <mxCell id="Buo815LVb-Y8c9eUiNSX-25" value="Github Event" style="edgeLabel;html=1;align=center;verticalAlign=middle;resizable=0;points=[];" vertex="1" connectable="0" parent="Buo815LVb-Y8c9eUiNSX-22">
          <mxGeometry x="-0.1368" relative="1" as="geometry">
            <mxPoint y="1" as="offset" />
          </mxGeometry>
        </mxCell>
        <mxCell id="Buo815LVb-Y8c9eUiNSX-1" value="Application&lt;br&gt;Repository" style="dashed=0;outlineConnect=0;html=1;align=center;labelPosition=center;verticalLabelPosition=bottom;verticalAlign=top;shape=mxgraph.weblogos.github;shadow=1;textShadow=1;" vertex="1" parent="1">
          <mxGeometry x="140" y="100" width="75" height="75" as="geometry" />
        </mxCell>
        <mxCell id="Buo815LVb-Y8c9eUiNSX-5" style="edgeStyle=orthogonalEdgeStyle;rounded=0;orthogonalLoop=1;jettySize=auto;html=1;shadow=1;textShadow=1;" edge="1" parent="1" source="Buo815LVb-Y8c9eUiNSX-7" target="Buo815LVb-Y8c9eUiNSX-3">
          <mxGeometry relative="1" as="geometry" />
        </mxCell>
        <mxCell id="Buo815LVb-Y8c9eUiNSX-2" value="Infrastructure&lt;div&gt;Repository&lt;/div&gt;" style="dashed=0;outlineConnect=0;html=1;align=center;labelPosition=center;verticalLabelPosition=bottom;verticalAlign=top;shape=mxgraph.weblogos.github;shadow=1;textShadow=1;" vertex="1" parent="1">
          <mxGeometry x="70" y="323.7" width="75" height="75" as="geometry" />
        </mxCell>
        <mxCell id="Buo815LVb-Y8c9eUiNSX-3" value="S3 Bucket:&lt;br&gt;ECS Mirror" style="sketch=0;points=[[0,0,0],[0.25,0,0],[0.5,0,0],[0.75,0,0],[1,0,0],[0,1,0],[0.25,1,0],[0.5,1,0],[0.75,1,0],[1,1,0],[0,0.25,0],[0,0.5,0],[0,0.75,0],[1,0.25,0],[1,0.5,0],[1,0.75,0]];outlineConnect=0;fontColor=#232F3E;fillColor=#7AA116;strokeColor=#ffffff;dashed=0;verticalLabelPosition=bottom;verticalAlign=top;align=center;html=1;fontSize=12;fontStyle=0;aspect=fixed;shape=mxgraph.aws4.resourceIcon;resIcon=mxgraph.aws4.s3;shadow=1;textShadow=1;" vertex="1" parent="1">
          <mxGeometry x="600" y="320" width="78" height="78" as="geometry" />
        </mxCell>
        <mxCell id="Buo815LVb-Y8c9eUiNSX-8" value="" style="edgeStyle=orthogonalEdgeStyle;rounded=0;orthogonalLoop=1;jettySize=auto;html=1;flowAnimation=0;shadow=1;textShadow=1;" edge="1" parent="1" source="Buo815LVb-Y8c9eUiNSX-2" target="Buo815LVb-Y8c9eUiNSX-7">
          <mxGeometry relative="1" as="geometry">
            <mxPoint x="215" y="388" as="sourcePoint" />
            <mxPoint x="370" y="280" as="targetPoint" />
            <Array as="points">
              <mxPoint x="240" y="360" />
              <mxPoint x="240" y="360" />
            </Array>
          </mxGeometry>
        </mxCell>
        <mxCell id="Buo815LVb-Y8c9eUiNSX-26" style="edgeStyle=orthogonalEdgeStyle;rounded=0;orthogonalLoop=1;jettySize=auto;html=1;exitX=0.25;exitY=0;exitDx=0;exitDy=0;exitPerimeter=0;" edge="1" parent="1" source="Buo815LVb-Y8c9eUiNSX-3" target="Buo815LVb-Y8c9eUiNSX-28">
          <mxGeometry relative="1" as="geometry">
            <mxPoint x="539.6000000000001" y="190" as="targetPoint" />
            <Array as="points">
              <mxPoint x="620" y="150" />
            </Array>
          </mxGeometry>
        </mxCell>
        <mxCell id="Buo815LVb-Y8c9eUiNSX-7" value="task-template.json" style="verticalLabelPosition=bottom;html=1;verticalAlign=top;strokeWidth=1;align=center;outlineConnect=0;dashed=0;outlineConnect=0;shape=mxgraph.aws3d.file;aspect=fixed;strokeColor=#292929;shadow=1;textShadow=1;labelBackgroundColor=none;" vertex="1" parent="1">
          <mxGeometry x="460.00000000000006" y="323.70000000000005" width="30.8" height="70.6" as="geometry" />
        </mxCell>
        <mxCell id="Buo815LVb-Y8c9eUiNSX-27" style="edgeStyle=orthogonalEdgeStyle;rounded=0;orthogonalLoop=1;jettySize=auto;html=1;" edge="1" parent="1" source="Buo815LVb-Y8c9eUiNSX-23" target="Buo815LVb-Y8c9eUiNSX-28">
          <mxGeometry relative="1" as="geometry">
            <mxPoint x="480" y="137.5" as="targetPoint" />
            <Array as="points">
              <mxPoint x="500" y="138" />
              <mxPoint x="500" y="138" />
            </Array>
          </mxGeometry>
        </mxCell>
        <mxCell id="Buo815LVb-Y8c9eUiNSX-23" value="deploy/taskdef.json" style="verticalLabelPosition=bottom;html=1;verticalAlign=top;strokeWidth=1;align=center;outlineConnect=0;dashed=0;outlineConnect=0;shape=mxgraph.aws3d.file;aspect=fixed;strokeColor=#292929;shadow=1;textShadow=1;labelBackgroundColor=none;" vertex="1" parent="1">
          <mxGeometry x="440" y="102.20000000000006" width="30.8" height="70.6" as="geometry" />
        </mxCell>
        <mxCell id="Buo815LVb-Y8c9eUiNSX-28" value="&amp;nbsp;MergedTask.json" style="verticalLabelPosition=bottom;html=1;verticalAlign=top;strokeWidth=1;align=center;outlineConnect=0;dashed=0;outlineConnect=0;shape=mxgraph.aws3d.file;aspect=fixed;strokeColor=#292929;shadow=1;textShadow=1;labelBackgroundColor=none;" vertex="1" parent="1">
          <mxGeometry x="659.2" y="102.20000000000006" width="30.8" height="70.6" as="geometry" />
        </mxCell>
        <mxCell id="Buo815LVb-Y8c9eUiNSX-33" value="" style="edgeStyle=orthogonalEdgeStyle;rounded=0;orthogonalLoop=1;jettySize=auto;html=1;" edge="1" parent="1" source="Buo815LVb-Y8c9eUiNSX-29" target="Buo815LVb-Y8c9eUiNSX-32">
          <mxGeometry relative="1" as="geometry" />
        </mxCell>
        <mxCell id="Buo815LVb-Y8c9eUiNSX-29" value="&lt;h3 style=&quot;line-height: 50%;&quot;&gt;Ecspresso&lt;br&gt;&lt;p style=&quot;line-height: 50%;&quot;&gt;&lt;span style=&quot;font-weight: normal;&quot;&gt;Deploy&lt;/span&gt;&lt;/p&gt;&lt;/h3&gt;" style="shape=mxgraph.signs.food.coffee;html=1;pointerEvents=1;fillColor=#663300;strokeColor=none;verticalLabelPosition=bottom;verticalAlign=top;align=center;shadow=1;textShadow=1;" vertex="1" parent="1">
          <mxGeometry x="740" y="107" width="98" height="61" as="geometry" />
        </mxCell>
        <mxCell id="Buo815LVb-Y8c9eUiNSX-31" style="edgeStyle=orthogonalEdgeStyle;rounded=0;orthogonalLoop=1;jettySize=auto;html=1;entryX=0.21;entryY=0.5;entryDx=0;entryDy=0;entryPerimeter=0;" edge="1" parent="1" source="Buo815LVb-Y8c9eUiNSX-28" target="Buo815LVb-Y8c9eUiNSX-29">
          <mxGeometry relative="1" as="geometry" />
        </mxCell>
        <mxCell id="Buo815LVb-Y8c9eUiNSX-35" style="edgeStyle=orthogonalEdgeStyle;rounded=0;orthogonalLoop=1;jettySize=auto;html=1;" edge="1" parent="1" source="Buo815LVb-Y8c9eUiNSX-32" target="Buo815LVb-Y8c9eUiNSX-34">
          <mxGeometry relative="1" as="geometry">
            <Array as="points">
              <mxPoint x="1050" y="137.5" />
              <mxPoint x="1050" y="355.29999999999995" />
            </Array>
          </mxGeometry>
        </mxCell>
        <mxCell id="Buo815LVb-Y8c9eUiNSX-32" value="&lt;h3 style=&quot;line-height: 50%;&quot;&gt;Ecspresso&lt;br&gt;&lt;p style=&quot;line-height: 50%;&quot;&gt;&lt;span style=&quot;font-weight: normal;&quot;&gt;Render&lt;/span&gt;&lt;/p&gt;&lt;/h3&gt;" style="shape=mxgraph.signs.food.coffee;html=1;pointerEvents=1;fillColor=#663300;strokeColor=none;verticalLabelPosition=bottom;verticalAlign=top;align=center;shadow=1;textShadow=1;" vertex="1" parent="1">
          <mxGeometry x="900" y="107" width="98" height="61" as="geometry" />
        </mxCell>
        <mxCell id="Buo815LVb-Y8c9eUiNSX-34" value="task-definiton.json" style="verticalLabelPosition=bottom;html=1;verticalAlign=top;strokeWidth=1;align=center;outlineConnect=0;dashed=0;outlineConnect=0;shape=mxgraph.aws3d.file;aspect=fixed;strokeColor=#292929;shadow=1;textShadow=1;labelBackgroundColor=none;" vertex="1" parent="1">
          <mxGeometry x="933.6" y="323.70000000000005" width="30.8" height="70.6" as="geometry" />
        </mxCell>
        <mxCell id="Buo815LVb-Y8c9eUiNSX-36" style="edgeStyle=orthogonalEdgeStyle;rounded=0;orthogonalLoop=1;jettySize=auto;html=1;entryX=1;entryY=0.5;entryDx=0;entryDy=0;entryPerimeter=0;" edge="1" parent="1" source="Buo815LVb-Y8c9eUiNSX-34" target="Buo815LVb-Y8c9eUiNSX-3">
          <mxGeometry relative="1" as="geometry" />
        </mxCell>
        <mxCell id="Buo815LVb-Y8c9eUiNSX-39" value="" style="group" vertex="1" connectable="0" parent="1">
          <mxGeometry x="220" y="352" width="290" height="347.5" as="geometry" />
        </mxCell>
        <mxCell id="Buo815LVb-Y8c9eUiNSX-9" value="&lt;h4&gt;Component:&lt;/h4&gt;&lt;pre&gt;ecs-service&lt;/pre&gt;" style="html=1;dropTarget=0;whiteSpace=wrap;shadow=1;textShadow=1;" vertex="1" parent="Buo815LVb-Y8c9eUiNSX-39">
          <mxGeometry width="180" height="90" as="geometry" />
        </mxCell>
        <mxCell id="Buo815LVb-Y8c9eUiNSX-10" value="" style="shape=module;jettyWidth=8;jettyHeight=4;shadow=1;textShadow=1;" vertex="1" parent="Buo815LVb-Y8c9eUiNSX-9">
          <mxGeometry x="1" width="20" height="20" relative="1" as="geometry">
            <mxPoint x="-27" y="7" as="offset" />
          </mxGeometry>
        </mxCell>
        <mxCell id="Buo815LVb-Y8c9eUiNSX-38" value="" style="group" vertex="1" connectable="0" parent="Buo815LVb-Y8c9eUiNSX-39">
          <mxGeometry y="87.5" width="290" height="260" as="geometry" />
        </mxCell>
        <mxCell id="Buo815LVb-Y8c9eUiNSX-19" value="&lt;div&gt;&lt;br&gt;&lt;/div&gt;" style="rounded=0;whiteSpace=wrap;html=1;shadow=1;textShadow=1;" vertex="1" parent="Buo815LVb-Y8c9eUiNSX-38">
          <mxGeometry y="1" width="290" height="259" as="geometry" />
        </mxCell>
        <mxCell id="Buo815LVb-Y8c9eUiNSX-20" value="&lt;h1&gt;Task Definition&lt;/h1&gt;&lt;p style=&quot;line-height: 100%;&quot;&gt;&lt;/p&gt;&lt;p&gt;Generated by component variables&lt;/p&gt;&lt;font face=&quot;Courier New&quot;&gt;cpu: 256&lt;/font&gt;&lt;p&gt;&lt;/p&gt;&lt;p style=&quot;line-height: 100%;&quot;&gt;&lt;font face=&quot;Courier New&quot;&gt;family: cp-plat-ue2-dev-my-service&lt;/font&gt;&lt;/p&gt;&lt;p style=&quot;line-height: 100%;&quot;&gt;&lt;font face=&quot;Courier New&quot;&gt;containerDefinitions: [&lt;/font&gt;&lt;/p&gt;&lt;p style=&quot;line-height: 100%;&quot;&gt;&lt;font face=&quot;Courier New&quot;&gt;&amp;nbsp; image: 1234567890::ecr.../my-image:latest&lt;/font&gt;&lt;/p&gt;&lt;p style=&quot;line-height: 100%;&quot;&gt;&lt;font face=&quot;Courier New&quot;&gt;]&lt;br&gt;&lt;br&gt;&lt;/font&gt;&lt;/p&gt;&lt;p style=&quot;line-height: 100%;&quot;&gt;&lt;font face=&quot;Courier New&quot;&gt;...&lt;/font&gt;&lt;/p&gt;" style="text;html=1;spacing=5;spacingTop=-20;overflow=hidden;rounded=0;whiteSpace=wrap;horizontal=1;verticalAlign=top;" vertex="1" parent="Buo815LVb-Y8c9eUiNSX-38">
          <mxGeometry width="280" height="260" as="geometry" />
        </mxCell>
      </root>
    </mxGraphModel>
  </diagram>
</mxfile>
